<?xml version="1.0"?>
<svg xmlns="http://www.w3.org/2000/svg" xmlns:xlink="http://www.w3.org/1999/xlink" xmlns:svgjs="http://svgjs.com/svgjs" version="1.1" width="512" height="512" x="0" y="0" viewBox="0 0 500 500" style="enable-background:new 0 0 512 512" xml:space="preserve" class=""><g><path xmlns="http://www.w3.org/2000/svg" d="m245.524 66.236c-32.213-49.74-107.043-22.37-94.111 37.22 9.649 36.995 62.576 63.475 88.9 80.4a13.836 13.836 0 0 0 13.4.341c35.306-18.356 116.817-65.662 84.756-120.441-20.071-33.575-68.789-29.271-88.25 2.481a2.868 2.868 0 0 1 -4.695-.001z" fill="#ffffff" data-original="#000000" class=""/><path xmlns="http://www.w3.org/2000/svg" d="m437.879 362.14c-13.118-8.528-25.761-18.4-40.822-23.268 3.3-12.026-10.274-16.66-19.791-15.36-10.19 1.058-21.006 6.017-29.284 12.684a146.639 146.639 0 0 1 3.841-22.915c.9-3.768 2.488-7.8 2.193-11.737-.483-6.451-6.249-8.347-11.9-7.77-10.436 1.064-20.76 7.719-24.124 17.712-17.269 2.346-26.441 18.779-30.609 35.674-12.394-1.583-22.266 9.321-27.285 19.708-10.319 11.545-24 20.327-39.99 15.441 19.906-21.23 43.777-37.965 68.287-53.344 2.5-1.744 1.055-6.566-2.24-5.313a74.859 74.859 0 0 0 -12.351 6.215 26.583 26.583 0 0 0 -10.411-14.915c4.333-2.8 8.951-4.618 13.342-7.264 2.271-1.314.681-4.494-1.706-4.048-6.835 1.278-13.145 4.433-19.192 7.8-8.8-2.149-18.717 4.285-19.365 13.462a406.735 406.735 0 0 0 -53.652 46.456c-9.537 9.953-28.651 12.762-37.128 3 40.533-25.2 69.06-65.373 113.506-84.393 2.7-1.157.776-5.673-2-4.755-23.182 7.654-41.98 23.41-60.049 39.3-7.721 6.788-15.328 13.805-23.112 20.607a31.117 31.117 0 0 1 -19.663 7.825c-6.6.156-12.778-1.378-15.159-4.266 23.482-16.761 47.126-33.958 68.754-53.218 4.888-2.987 9.019-7.011 14.015-9.788 4.654-2.673 9.792-4.53 14.592-6.919 12.335-2.615 25.138-6.727 35.331-14.019 19.177-5.719 40.006-12 60.162-12.185 16.571-.173 32.839 5.311 48.457 10.33a873.986 873.986 0 0 1 94.117 36.824c4.238 1.927 7.948-4.353 3.679-6.294q-37.046-16.846-75.435-30.586c-24.922-8.882-52.428-19.881-79.326-16.994a239.932 239.932 0 0 0 -40.944 8.469 48.01 48.01 0 0 0 9.064-24.76c.572-8.15-6.989-13.206-13.8-15.832a3.954 3.954 0 0 0 -3.946 1.043c-14.645 13.748-36.5 18.071-56.022 19.156-11.267.546-22.535-1.4-33.577 1.541-17.258 4.753-29.088 19.632-44.56 27.836-34.338 18.208-59.249 21.978-71.612 25.007-.3-3.444.021-8.446-4.708-7.871-15.8 2.485-33.6 5.829-48.709 11.187a3.246 3.246 0 0 0 -2.26 3.49h-.024v161.136a2.962 2.962 0 0 0 0 1.467c2.055 6.314 15.362-4.986 18.813-6.627 4.38-2.585 34.613-19.646 44.4-25.165 3.417-1.778 3.221-5.683 3.226-8.985 54.148-24.951 112.826 21.68 182.2 16.421 4.677-.459 9.643-6.075 12.232-9.01 2.543-2.883 7.105-7.668 7.327-12.1q1-3.588 1.931-7.2c9.081-5.787 21.115-8.035 28.193-16.515 9.437 2.907 20.048-1.153 26.042-8.724 7.049-1.037 13.486 1.823 20.433-1.423 6.548-3.059 10.725-8.729 15.167-14.167a116.986 116.986 0 0 1 20.23-19.301c6.837 2.338 13.51 4.953 19.563 8.978 23.994 14.824 46.642 31.809 70.119 47.349 3.279 1.954 7.275-2.864 4.189-5.43-15.528-12.103-32.462-22.454-48.649-33.657zm-188.26-44.081c6.321-1.347 12.092 3.578 15.264 8.465 1.006 2.67 2.987 5.368-.068 7.688a3.284 3.284 0 0 1 -3.526.409c-3.221-6.443-10.006-10.508-17.465-11.467a9.923 9.923 0 0 1 5.795-5.095zm-33.5 32.117a287.772 287.772 0 0 1 24.335-19.476c7.453-2.121 15.439 3.775 15.921 11.314-17.403 12.408-32.475 27.586-48.275 41.836-9.336 8.479-19.013 9.4-30.211 3.792 11.733-13.38 24.939-25.748 38.228-37.466zm-138.06 59.043c-4.289-37.8-6.83-75.74-9.291-113.69l10.189-2.318q5.543 55.289 13.313 110.318-7.096 2.865-14.211 5.69zm195.972.623c-2.05 6.926-7.314 12.752-13.364 16.483a257.588 257.588 0 0 1 -87.734-14.087c-23.907-7.844-47.928-14.693-72.751-10.565-5.194-37.212-10.055-73.073-13.782-110.457 32.1-4.427 58.836-20.889 83.921-40.443 13.232-11.25 29.933-9.129 46-9.1 21.525-.878 44.252-5.389 61.379-19.25 6.1 2.913 7.016 6.011 5.054 12.369-4.892 25.208-32.231 33.164-54.574 37.718-3.381.2-6.185 1.635-9.228 3.972-9.6 7.846-19.558 15.581-31.267 20.068-5.68 2.223-12 2.671-17.5 5.078-2.683 1.175-1.829 5.5.8 6.126 3.66.873 7.792.246 11.666-.767q-24.881 19.128-50.251 37.573a3.781 3.781 0 0 0 -1.313 5.009c4.679 9.357 14.308 11.922 23.952 11.08a183 183 0 0 1 -16.475 11.1 3.477 3.477 0 0 0 -1.223 4.666 23.905 23.905 0 0 0 11.824 9.619c2.692 4.062 12.748 5.277 17.371 5.087 2.983 6.671 11.606 10.022 18.517 11.244a41.157 41.157 0 0 0 27.682-4.726c1.807-1.052 3.761-3.338 5.809-3.763 2.485-.515 6.05.7 8.626.8 9.842.338 17.879-1.125 26.6-7.129a47.269 47.269 0 0 1 -6.384 15.148 2.365 2.365 0 0 0 3.208 3.207c16.871-8.7 4.5-45.941 35.527-52.306-.003.004-7.497 40.479-12.09 56.246zm20.869-18.233c-3.071 1.439-6.932 2.842-10.2 4.842 10.5-78.7 32.243-76.444 32.243-76.444.38 1.863-.491 4.609-.3 6.574q-1.524 11.971-3.049 23.943c-2.442 16.623-.316 33.681-18.694 41.085zm24.184-9.563a24.951 24.951 0 0 1 -4.263-.069c3.688-8.57 3.879-18.49 5.075-27.624 1.309-11.137 3.028-22.268 4.129-33.412a11.081 11.081 0 0 0 -.06-4.878 38.87 38.87 0 0 1 2.278-6.288c4.172-5.163 9.825-8.8 17.016-9.16 3.74-.189 3.872 2.011 3.109 5.219-.811 3.409-1.764 6.774-2.5 10.2-6.455 19.999 1.732 61.14-24.78 66.012zm67.725-41.359c-8.8 6.858-15.889 14.738-22.946 23.323-6.547 8.324-12.493 10.942-22.935 9.554 4.544-8.7 5.632-18.83 6.4-28.9 9.063-4.964 17.216-11.516 27.606-13.68 4.492-.817 14.013-1.7 15.538 3.934.506 2.802-1.739 4.273-3.659 5.769z" fill="#ffffff" data-original="#000000" class=""/></g></svg>
